<svg width="9" height="16" viewBox="0 0 9 16" fill="none" xmlns="http://www.w3.org/2000/svg">
<path d="M0.413363 0.94666C0.289758 1.07001 0.191695 1.21653 0.124786 1.37783C0.0578778 1.53913 0.0234375 1.71204 0.0234375 1.88666C0.0234375 2.06128 0.0578778 2.23419 0.124786 2.39549C0.191695 2.55679 0.289758 2.70331 0.413363 2.82666L5.5867 7.99999L0.413363 13.1733C0.16406 13.4226 0.0240021 13.7608 0.0240021 14.1133C0.0240021 14.4659 0.16406 14.804 0.413363 15.0533C0.662667 15.3026 1.00079 15.4427 1.35336 15.4427C1.70593 15.4427 2.04406 15.3026 2.29336 15.0533L8.41336 8.93333C8.53697 8.80998 8.63503 8.66346 8.70194 8.50216C8.76885 8.34086 8.80329 8.16795 8.80329 7.99333C8.80329 7.8187 8.76885 7.64579 8.70194 7.48449C8.63503 7.3232 8.53697 7.17668 8.41336 7.05333L2.29336 0.933327C1.7867 0.42666 0.933363 0.42666 0.413363 0.94666Z" fill="white"/>
</svg>
