<svg width="9" height="16" viewBox="0 0 9 16" fill="none" xmlns="http://www.w3.org/2000/svg">
<path d="M8.4133 15.051C8.5369 14.9277 8.63497 14.7811 8.70187 14.6198C8.76878 14.4585 8.80322 14.2856 8.80322 14.111C8.80322 13.9364 8.76878 13.7635 8.70187 13.6022C8.63497 13.4409 8.5369 13.2944 8.4133 13.171L3.23996 7.99767L8.4133 2.82434C8.6626 2.57503 8.80266 2.23691 8.80266 1.88434C8.80266 1.53177 8.6626 1.19364 8.4133 0.944337C8.16399 0.695033 7.82587 0.554978 7.4733 0.554978C7.12073 0.554978 6.7826 0.695033 6.5333 0.944337L0.413297 7.06434C0.289692 7.18769 0.191629 7.33421 0.12472 7.49551C0.0578114 7.6568 0.0233724 7.82971 0.0233724 8.00434C0.0233724 8.17896 0.0578114 8.35187 0.12472 8.51317C0.191629 8.67447 0.289692 8.82099 0.413297 8.94434L6.5333 15.0643C7.03996 15.571 7.8933 15.571 8.4133 15.051Z" fill="white"/>
</svg>
